# xmcd
#
# Track frame offsets: 
#        150
#        21874
#        41937
#        63243
#        84120
#        111174
#        154094
#        181569
#
# Disc length: 3319 seconds
#
# Revision: 0
# Processed by: cddbd v1.5.2PL0 Copyright (c) Steve Scherf et al.
# Submitted via: ExactAudioCopy v1.3
#
DISCID=570cf508
DTITLE=Angel Forrest - Electric Love [Disk 2]
DYEAR=2018
DGENRE=Blues Rock
TTITLE0=Goodbye
TTITLE1=Roll On Down
TTITLE2=Hold On Tight, Mr. I'm Alright
TTITLE3=Crucify
TTITLE4=Mother Tongue Blues
TTITLE5=Turtle Blues
TTITLE6=Bobby McGee
TTITLE7=Mama Whole Lotta Love
EXTD=
EXTT0=
EXTT1=
EXTT2=
EXTT3=
EXTT4=
EXTT5=
EXTT6=
EXTT7=
PLAYORDER=
